<svg xmlns="http://www.w3.org/2000/svg" width="50" height="50" viewBox="0 0 50 50">
  <defs>
    <style>
      .cls-1 {
        fill: #fff;
        stroke: blue;
        stroke-width: 1.96px;
        fill-rule: evenodd;
      }
    </style>
  </defs>
  <path id="Vorm_1" data-name="Vorm 1" class="cls-1" d="M42,36.308v-16.8L26.443,5.277,25.047,4,13.563,14.339l1.094,1.938h2.734L24.5,10.462l9.844,8.4-2.187,3.231-6.562-5.815-3.828,2.585Zm-6.016,0L24.5,46,7.547,31.785,7,13.046,27.234,30.492,24.5,34.369l-6.562-5.815-3.828,2.585L24.5,40.185l5.469-4.523,4.922-1.292Z"/>
  <path id="Vorm_2" data-name="Vorm 2" class="cls-1" d="M101-25.154v-2s-0.329-1.252-.444-1.694L100.516-29l-0.329,1.231,0.032,0.231H100.3l0.2-.692,0.281,1-0.062.385-0.188-.692-0.109.308Zm-0.172,0L100.5-24l-0.484-1.692L100-27.923l0.578,2.077-0.078.462-0.188-.692-0.109.308,0.3,1.077,0.156-.538,0.141-.154Z"/>
</svg>
